<svg xmlns="http://www.w3.org/2000/svg" version="1.1" xmlns:xlink="http://www.w3.org/1999/xlink" xmlns:svgjs="http://svgjs.com/svgjs" width="512" height="512" x="0" y="0" viewBox="0 0 24 24" style="enable-background:new 0 0 512 512" xml:space="preserve" class="hovered-paths"><g><path d="M7 0H4a4 4 0 0 0-4 4v3a4 4 0 0 0 4 4h3a4 4 0 0 0 4-4V4a4 4 0 0 0-4-4Zm2 7a2 2 0 0 1-2 2H4a2 2 0 0 1-2-2V4a2 2 0 0 1 2-2h3a2 2 0 0 1 2 2ZM20 0h-3a4 4 0 0 0-4 4v3a4 4 0 0 0 4 4h3a4 4 0 0 0 4-4V4a4 4 0 0 0-4-4Zm2 7a2 2 0 0 1-2 2h-3a2 2 0 0 1-2-2V4a2 2 0 0 1 2-2h3a2 2 0 0 1 2 2ZM7 13H4a4 4 0 0 0-4 4v3a4 4 0 0 0 4 4h3a4 4 0 0 0 4-4v-3a4 4 0 0 0-4-4Zm2 7a2 2 0 0 1-2 2H4a2 2 0 0 1-2-2v-3a2 2 0 0 1 2-2h3a2 2 0 0 1 2 2ZM20 13h-3a4 4 0 0 0-4 4v3a4 4 0 0 0 4 4h3a4 4 0 0 0 4-4v-3a4 4 0 0 0-4-4Zm2 7a2 2 0 0 1-2 2h-3a2 2 0 0 1-2-2v-3a2 2 0 0 1 2-2h3a2 2 0 0 1 2 2Z" fill="#eeeeee" data-original="#000000" class="hovered-path"></path></g></svg>